<?xml version="1.0" encoding="iso-8859-1"?>
<!-- Generator: Adobe Illustrator 25.4.1, SVG Export Plug-In . SVG Version: 6.00 Build 0)  -->
<svg version="1.1" id="Layer_1" xmlns="http://www.w3.org/2000/svg" xmlns:xlink="http://www.w3.org/1999/xlink" x="0px" y="0px"
	 viewBox="0 0 64 64" style="enable-background:new 0 0 64 64;" xml:space="preserve">
<linearGradient id="SVGID_1_" gradientUnits="userSpaceOnUse" x1="33" y1="8.8804" x2="33" y2="57.0567">
	<stop  offset="0" style="stop-color:#1A6DFF"/>
	<stop  offset="1" style="stop-color:#C822FF"/>
</linearGradient>
<path style="fill:url(#SVGID_1_);" d="M54,25.002c-0.134,0-0.269-0.026-0.396-0.082c-5.775-2.49-13.087-3.861-20.587-3.861
	c-7.522,0-14.845,1.371-20.621,3.861c-0.374,0.163-0.81,0.08-1.1-0.208c-0.29-0.287-0.376-0.722-0.218-1.098
	c1.935-4.6,5.535-8.635,10.028-11.303c-0.115-0.028-0.228-0.049-0.337-0.061c-0.767-0.086-1.453-0.464-1.935-1.065
	c-0.481-0.603-0.699-1.355-0.614-2.121c0.174-1.571,1.594-2.715,3.179-2.547c2.182,0.242,4.337,1.36,6.129,3.167
	c3.641-0.893,7.334-0.893,10.976,0c1.792-1.807,3.947-2.925,6.124-3.167c1.591-0.171,3.01,0.971,3.185,2.548
	c0.085,0.765-0.133,1.518-0.614,2.119c-0.481,0.603-1.168,0.98-1.933,1.066c-0.111,0.012-0.224,0.032-0.34,0.061
	c4.469,2.659,8.057,6.694,9.996,11.303c0.158,0.376,0.072,0.811-0.218,1.098C54.513,24.901,54.258,25.002,54,25.002z M33.017,19.059
	c6.749,0,13.367,1.079,18.935,3.065c-2.172-3.767-5.575-6.953-9.618-8.945c-0.314-0.155-0.524-0.462-0.554-0.811
	s0.124-0.688,0.406-0.894c0.957-0.7,1.918-1.107,2.86-1.212c0.233-0.025,0.444-0.142,0.592-0.326
	c0.147-0.186,0.214-0.416,0.188-0.649c-0.054-0.484-0.49-0.84-0.978-0.781c-1.836,0.204-3.761,1.285-5.281,2.966
	c-0.253,0.279-0.64,0.393-1.004,0.294c-3.676-1-7.417-1-11.091,0c-0.364,0.098-0.752-0.015-1.004-0.294
	c-1.52-1.681-3.445-2.762-5.283-2.966c-0.479-0.064-0.922,0.298-0.976,0.78c-0.026,0.234,0.041,0.465,0.188,0.649
	c0.148,0.186,0.358,0.302,0.593,0.327c0.941,0.104,1.903,0.512,2.859,1.212c0.282,0.206,0.436,0.545,0.405,0.894
	c-0.03,0.349-0.24,0.655-0.554,0.811c-4.063,2.002-7.476,5.188-9.649,8.945C19.621,20.138,26.25,19.059,33.017,19.059z"/>
<linearGradient id="SVGID_00000099664061910273494190000017326825871903727267_" gradientUnits="userSpaceOnUse" x1="20.5" y1="8.8804" x2="20.5" y2="57.0567">
	<stop  offset="0" style="stop-color:#1A6DFF"/>
	<stop  offset="1" style="stop-color:#C822FF"/>
</linearGradient>
<path style="fill:url(#SVGID_00000099664061910273494190000017326825871903727267_);" d="M31,58c-0.019,0-0.037-0.001-0.056-0.002
	C18.639,57.312,9,46.89,9,34.271c0-2.188,0.291-4.345,0.864-6.408c0.078-0.282,0.276-0.516,0.542-0.639
	c5.842-2.721,12.957-4.242,20.574-4.4c0.269-0.012,0.528,0.098,0.72,0.285c0.192,0.188,0.3,0.446,0.3,0.715V57
	c0,0.274-0.113,0.538-0.313,0.727C31.501,57.902,31.255,58,31,58z M11.673,28.844C11.226,30.598,11,32.421,11,34.271
	c0,11.194,8.263,20.5,19,21.645V24.854C23.229,25.107,16.922,26.479,11.673,28.844z"/>
<linearGradient id="SVGID_00000021823793730025781730000017593683118052308375_" gradientUnits="userSpaceOnUse" x1="45.5" y1="8.8804" x2="45.5" y2="57.0567">
	<stop  offset="0" style="stop-color:#1A6DFF"/>
	<stop  offset="1" style="stop-color:#C822FF"/>
</linearGradient>
<path style="fill:url(#SVGID_00000021823793730025781730000017593683118052308375_);" d="M35,58c-0.255,0-0.501-0.098-0.687-0.273
	C34.113,57.538,34,57.274,34,57V23.824c0-0.269,0.108-0.526,0.3-0.715c0.192-0.188,0.456-0.293,0.72-0.285
	c7.617,0.158,14.731,1.68,20.574,4.4c0.266,0.123,0.463,0.356,0.542,0.639C56.709,29.927,57,32.083,57,34.271
	c0,12.618-9.639,23.041-21.944,23.727C35.037,57.999,35.019,58,35,58z M36,24.854v31.062c10.737-1.145,19-10.45,19-21.645
	c0-1.851-0.226-3.674-0.673-5.428C49.078,26.479,42.771,25.107,36,24.854z"/>
<linearGradient id="SVGID_00000112599037315522221800000015206245461013397430_" gradientUnits="userSpaceOnUse" x1="40.2299" y1="42.6304" x2="40.2299" y2="51.6338">
	<stop  offset="0" style="stop-color:#6DC7FF"/>
	<stop  offset="1" style="stop-color:#E6ABFF"/>
</linearGradient>
<path style="fill:url(#SVGID_00000112599037315522221800000015206245461013397430_);" d="M40.23,51.499
	c-1.529,0-2.769-1.24-2.769-2.769c0-1.086,1.381-3.554,2.192-4.91c0.262-0.438,0.89-0.437,1.152,0
	c0.811,1.358,2.193,3.829,2.193,4.909C42.999,50.26,41.759,51.499,40.23,51.499z"/>
<linearGradient id="SVGID_00000077288279919796546390000003609105742090259083_" gradientUnits="userSpaceOnUse" x1="45.7675" y1="28.5924" x2="45.7675" y2="41.9144">
	<stop  offset="0" style="stop-color:#6DC7FF"/>
	<stop  offset="1" style="stop-color:#E6ABFF"/>
</linearGradient>
<path style="fill:url(#SVGID_00000077288279919796546390000003609105742090259083_);" d="M49.281,36.61l1.873-0.616
	c0.486-0.157,1.005,0.106,1.165,0.589c0.159,0.484-0.104,1.006-0.588,1.166l-0.438,0.144c0.358,0.289,0.465,0.796,0.215,1.197
	c-0.175,0.28-0.476,0.434-0.784,0.434c-0.131,0-0.261-0.037-0.385-0.095l0.061,0.448c0.069,0.505-0.284,0.97-0.789,1.039
	c-0.043,0.006-0.085,0.008-0.127,0.008c-0.454,0-0.85-0.335-0.913-0.798l-0.268-1.951l-1.613-1.008v1.902l1.514,1.261
	c0.392,0.327,0.445,0.909,0.118,1.3c-0.183,0.219-0.445,0.332-0.71,0.332c-0.208,0-0.418-0.07-0.59-0.214l-0.354-0.295
	c-0.055,0.457-0.43,0.816-0.901,0.816s-0.846-0.359-0.901-0.816l-0.354,0.295c-0.391,0.327-0.974,0.273-1.3-0.118
	c-0.326-0.392-0.273-0.973,0.118-1.3l1.514-1.261v-1.902l-1.613,1.008l-0.268,1.951c-0.064,0.463-0.459,0.798-0.913,0.798
	c-0.042,0-0.084-0.002-0.127-0.008c-0.505-0.07-0.858-0.535-0.789-1.039l0.061-0.448c-0.124,0.058-0.254,0.095-0.385,0.095
	c-0.308,0-0.608-0.154-0.784-0.434c-0.25-0.401-0.143-0.908,0.215-1.197l-0.438-0.144c-0.484-0.16-0.747-0.681-0.588-1.166
	c0.16-0.483,0.684-0.745,1.165-0.589l1.873,0.616l1.772-1.108l-1.772-1.108l-1.873,0.616c-0.096,0.031-0.193,0.046-0.288,0.046
	c-0.388,0-0.749-0.246-0.877-0.635c-0.159-0.484,0.104-1.006,0.588-1.166l0.438-0.144c-0.358-0.289-0.465-0.796-0.215-1.197
	c0.251-0.402,0.753-0.526,1.17-0.332l-0.062-0.456c-0.069-0.505,0.284-0.97,0.789-1.039c0.505-0.068,0.971,0.284,1.04,0.79
	l0.268,1.951l1.613,1.008v-1.902l-1.514-1.261c-0.392-0.327-0.445-0.909-0.118-1.3c0.327-0.391,0.909-0.445,1.3-0.118l0.354,0.295
	c0.055-0.457,0.43-0.816,0.901-0.816s0.846,0.359,0.901,0.816l0.354-0.295c0.392-0.328,0.973-0.273,1.3,0.118
	c0.326,0.392,0.273,0.973-0.118,1.3l-1.514,1.261v1.902l1.613-1.008l0.268-1.951c0.069-0.506,0.535-0.859,1.04-0.79
	c0.505,0.07,0.858,0.535,0.789,1.039l-0.062,0.455c0.417-0.196,0.919-0.069,1.17,0.332c0.25,0.401,0.143,0.908-0.215,1.197
	l0.438,0.144c0.484,0.16,0.747,0.681,0.588,1.166c-0.128,0.388-0.489,0.635-0.877,0.635c-0.096,0-0.193-0.014-0.288-0.046
	l-1.873-0.616l-1.772,1.108L49.281,36.61z"/>
<linearGradient id="SVGID_00000168076475337536168550000009418258965310099638_" gradientUnits="userSpaceOnUse" x1="21.8431" y1="29.6196" x2="21.8431" y2="46.8197">
	<stop  offset="0" style="stop-color:#6DC7FF"/>
	<stop  offset="1" style="stop-color:#E6ABFF"/>
</linearGradient>
<path style="fill:url(#SVGID_00000168076475337536168550000009418258965310099638_);" d="M27.061,35.297l-7.758,11.99
	c-0.309,0.478-1.05,0.169-0.929-0.387l1.551-7.091l-2.582,0.645c-0.492,0.123-0.932-0.334-0.791-0.821l2.304-7.936
	c0.09-0.31,0.342-0.546,0.658-0.614l5.404-1.175c0.466-0.101,0.842,0.383,0.629,0.809l-2.238,4.476l3.08-0.821
	C26.93,34.229,27.365,34.827,27.061,35.297z"/>
</svg>